# This file uses centimeters as units for non-parametric coordinates.

mtllib Projectile_Ramp_Ice.mtl
g default
v -63.838505 0.001312 71.504227
v 58.159847 0.001331 64.773811
v -47.132896 24.186163 8.506591
v 38.612179 23.078066 7.591100
v -53.334019 35.501957 -49.042152
v 52.531425 36.151085 -55.208504
v -64.462822 0.001308 -68.969574
v 62.066799 0.001312 -69.054855
v 28.871681 0.001308 73.960251
v 24.107916 0.001312 -69.029274
v 35.197136 37.066162 -55.010006
v 29.512384 23.284536 8.703600
v -37.942337 0.001305 81.380936
v -37.891586 0.001308 -68.987480
v -28.083879 37.238331 -54.660027
v -26.802605 24.194223 10.954676
v -9.942954 0.001308 86.288467
v -11.948761 23.919994 11.554762
v -9.452606 37.204914 -54.963261
v -6.891843 0.001308 -69.008408
v 16.758432 0.001301 81.535637
v 16.975124 21.924093 10.046484
v 18.885696 37.913994 -55.259048
v 17.907963 0.001312 -69.025108
v -50.334118 27.381008 -1.278965
v -55.666248 34.221123 -34.915756
v -34.044655 39.276844 -39.011475
v -27.913240 31.138035 -1.894912
v -11.516349 38.750492 -34.926945
v -11.712709 31.609531 -1.319975
v 19.112638 28.813522 -2.903613
v 22.811584 36.880482 -39.458744
v 32.411671 29.118286 -3.241461
v 39.351612 36.217781 -38.036453
v 64.152336 34.828403 -41.486534
v 44.169865 27.446049 -1.992793
v 79.749565 0.001308 -11.721008
v 72.448250 0.001316 20.488831
v 24.199810 2.551296 -11.350915
v 34.577827 1.770336 26.036386
v 17.998940 2.551296 -11.350915
v 17.498260 1.693199 24.830879
v -11.369808 2.084717 25.385151
v -6.804544 2.551296 -11.350913
v -37.808899 2.551296 -11.350915
v -34.848850 2.019432 24.662830
v -81.529404 0.001308 -13.904497
v -76.450645 0.001308 23.589535
v -41.971104 0.001305 81.396713
v -49.449387 0.900501 28.473743
v -41.309204 2.551296 -11.464048
v -40.548725 0.001312 -68.985687
v -42.028027 36.830425 -53.885765
v -43.573757 35.780617 -35.659554
v -40.639626 28.809681 -2.745508
v -39.037323 24.338242 9.874310
v 1.205868 0.001316 87.080734
v -0.347493 2.151428 24.103752
v -1.843849 2.551296 -11.350913
v -1.931882 0.001312 -69.011734
v -0.829669 38.568546 -59.637035
v 4.586540 36.322304 -33.666702
v 3.994196 29.711395 -1.962566
v 2.836717 23.563656 11.393251
v -51.083935 21.001810 16.509932
v -40.630413 20.746767 22.474211
v -28.011530 19.533272 24.726927
v -12.735480 19.476589 25.593307
v 2.261556 20.653893 25.997635
v 16.507307 17.946995 23.992226
v 29.933409 18.756073 21.942284
v 42.043468 19.000114 16.405441
v 52.223560 23.015255 4.231874
v 66.109985 30.069246 -35.045063
v 55.454681 32.348362 -56.360607
v 36.670582 25.074665 -55.746742
v 19.703712 25.286640 -56.340782
v 4.397161 25.177542 -56.300163
v -10.627316 24.826862 -56.735786
v -27.677696 24.711666 -55.945095
v -41.860767 24.527973 -55.805313
v -58.242275 28.755169 -53.373299
v -64.833649 28.760567 -30.815170
v -57.802956 23.090790 4.477783
v -56.145760 13.894650 28.761961
v -43.388905 11.959141 35.605545
v -31.419809 10.303989 37.851112
v -12.974844 11.288410 38.875221
v 1.787224 13.776024 39.941784
v 16.718220 10.548790 37.663174
v 30.781214 14.388031 36.613403
v 47.315479 14.699329 29.537840
v 61.179874 18.236950 14.211519
v 66.026299 19.570816 -24.924753
v 58.444939 19.706459 -45.186329
v 31.887844 20.741737 -45.459850
v 15.962411 22.100262 -45.478645
v 0.191423 21.701569 -44.815277
v -11.310993 20.562073 -45.061813
v -34.582237 17.575390 -45.685570
v -42.573456 17.879089 -45.962685
v -61.272141 20.327747 -46.740967
v -68.730827 19.738094 -25.497499
v -66.415733 16.805882 14.134096
v -62.854034 7.142044 48.521950
v -43.198597 5.392406 54.955711
v -38.637047 3.927822 55.481010
v -10.279459 6.051495 57.340477
v 0.669729 5.724781 59.184723
v 17.112850 4.772366 55.472130
v 29.474968 8.933483 53.710129
v 55.052013 5.516136 49.102539
v 69.730789 6.916340 21.567978
v 73.531677 6.846085 -19.781467
v 61.840683 6.027306 -57.883610
v 24.542562 5.756294 -57.868244
v 17.896000 6.119408 -57.879074
v -1.707101 6.190983 -57.860870
v -6.941186 6.497341 -57.855728
v -37.485458 5.841690 -57.843174
v -40.636375 5.817322 -57.842102
v -64.251816 6.242577 -57.832451
v -75.296486 6.699295 -21.495773
v -73.754196 5.272858 21.821774
v -54.406384 30.771637 -16.436056
v -43.533382 32.749672 -18.573149
v -31.271700 35.089825 -18.212868
v -12.886484 35.241627 -17.060192
v 4.710663 33.371071 -17.391056
v 21.187550 32.733662 -18.971098
v 36.357021 33.583084 -19.451857
v 51.599091 31.897442 -18.762110
v 59.248379 27.455936 -13.355861
v 67.698296 19.508713 -5.711685
v 74.147568 6.460228 0.166758
v 74.966766 0.001308 3.582230
v 37.370045 1.645081 4.974926
v 17.578337 2.527939 4.744437
v -0.747715 2.551212 3.346017
v -9.673806 2.551296 3.775015
v -35.264267 2.526543 4.182477
v -50.917179 1.736385 5.559851
v -80.825859 0.001308 1.652193
v -76.646294 5.205265 0.020778
v -70.493118 18.352638 -4.763151
v -62.100323 25.733351 -12.134869
vt 0.480647 0.747080
vt 0.533183 0.753234
vt 0.504175 0.801303
vt 0.470380 0.783247
vt 0.230915 0.805772
vt 0.195874 0.756811
vt 0.239277 0.741742
vt 0.240117 0.792457
vt 0.189241 0.590972
vt 0.191972 0.530458
vt 0.238517 0.535148
vt 0.238632 0.596849
vt 0.490490 0.519963
vt 0.544213 0.512029
vt 0.552434 0.575177
vt 0.497465 0.579807
vt 0.199374 0.482187
vt 0.242075 0.490424
vt 0.478861 0.471290
vt 0.527400 0.461019
vt 0.498173 0.639713
vt 0.553604 0.637245
vt 0.547516 0.697826
vt 0.493009 0.697136
vt 0.189495 0.698829
vt 0.184595 0.645454
vt 0.231487 0.627095
vt 0.238628 0.690421
vt 0.372868 0.389737
vt 0.363147 0.425006
vt 0.294716 0.433823
vt 0.296816 0.395511
vt 0.303716 0.476044
vt 0.365273 0.466475
vt 0.373465 0.512334
vt 0.295711 0.512124
vt 0.383194 0.579321
vt 0.315742 0.587101
vt 0.324341 0.642179
vt 0.385054 0.644190
vt 0.376870 0.704182
vt 0.299700 0.702743
vt 0.367759 0.759165
vt 0.301857 0.756768
vt 0.357731 0.817185
vt 0.272197 0.828319
vt 0.366747 0.853034
vt 0.279684 0.849823
vt 0.851564 0.370550
vt 0.818362 0.359161
vt 0.817616 0.276770
vt 0.854134 0.248915
vt 0.819342 0.233456
vt 0.854515 0.235356
vt 0.823519 0.193465
vt 0.855730 0.191966
vt 0.856032 0.181118
vt 0.823126 0.173919
vt 0.823802 0.117934
vt 0.857919 0.113324
vt 0.821730 0.083573
vt 0.858377 0.105677
vt 0.980408 0.252272
vt 0.978096 0.335329
vt 0.225236 0.430836
vt 0.249724 0.452516
vt 0.984094 0.116609
vt 0.982269 0.184442
vt 0.984249 0.110794
vt 0.980783 0.238706
vt 0.981972 0.195295
vt 0.427499 0.469865
vt 0.436005 0.519652
vt 0.442844 0.581857
vt 0.438103 0.701560
vt 0.443286 0.642801
vt 0.426603 0.799887
vt 0.430031 0.752940
vt 0.444841 0.836130
vt 0.667174 0.253952
vt 0.771725 0.269348
vt 0.781515 0.352616
vt 0.685497 0.318596
vt 0.640175 0.192611
vt 0.778088 0.193069
vt 0.775382 0.232066
vt 0.651348 0.226981
vt 0.655040 0.107305
vt 0.778982 0.117574
vt 0.775957 0.168882
vt 0.642589 0.168267
vt 0.655250 0.098490
vt 0.771488 0.085327
vt 0.425658 0.431740
vt 0.443784 0.398467
vt 0.497579 0.420418
vt 0.467687 0.439617
vt 0.783821 0.026524
vt 0.678219 0.051245
vt 0.832106 0.018288
vt 0.866200 0.017698
vt 0.985639 0.058464
vt 0.548352 0.392551
vt 0.586073 0.444595
vt 0.603337 0.494499
vt 0.611218 0.572349
vt 0.612634 0.635744
vt 0.606403 0.700808
vt 0.591340 0.761019
vt 0.553407 0.828717
vt 0.477420 0.876909
vt 0.390770 0.896058
vt 0.306966 0.888238
vt 0.209119 0.856361
vt 0.155571 0.753962
vt 0.145695 0.691729
vt 0.141977 0.630634
vt 0.142647 0.587035
vt 0.151212 0.494280
vt 0.162709 0.462932
vt 0.214425 0.397678
vt 0.309806 0.359860
vt 0.397128 0.347138
vt 0.478376 0.357532
vt 0.628304 0.361539
vt 0.667395 0.442226
vt 0.673037 0.462188
vt 0.686137 0.584165
vt 0.693370 0.631873
vt 0.678175 0.703813
vt 0.661837 0.758717
vt 0.633423 0.869526
vt 0.509570 0.927459
vt 0.412808 0.951589
vt 0.320636 0.945749
vt 0.142212 0.896841
vt 0.077440 0.739905
vt 0.072985 0.710467
vt 0.065810 0.622901
vt 0.067799 0.599676
vt 0.095396 0.466443
vt 0.100568 0.453233
vt 0.149345 0.357375
vt 0.315869 0.304005
vt 0.414027 0.291275
vt 0.513388 0.309125
vt 0.727069 0.352413
vt 0.775777 0.443880
vt 0.777408 0.461428
vt 0.801939 0.584821
vt 0.805084 0.633737
vt 0.782497 0.702650
vt 0.749678 0.757511
vt 0.700488 0.884955
vt 0.509470 0.957737
vt 0.429931 0.975048
vt 0.354010 0.985837
vt 0.088973 0.910163
vt 0.029230 0.747603
vt 0.023452 0.716999
vt 0.016904 0.620874
vt 0.017520 0.595869
vt 0.048943 0.453390
vt 0.053176 0.441364
vt 0.095403 0.344663
vt 0.346032 0.264024
vt 0.419878 0.265160
vt 0.522639 0.286727
vn 0.025033 0.947019 0.320201
vn 0.011822 0.947399 0.319836
vn 0.104278 0.947472 0.302363
vn 0.106592 0.932430 0.345270
vn 0.066887 -0.577198 -0.813860
vn 0.049775 -0.573586 -0.817632
vn 0.002155 0.087783 -0.996137
vn -0.041236 0.107319 -0.993369
vn -0.009809 -0.548526 -0.836076
vn 0.013448 -0.474826 -0.879977
vn -0.032569 0.124703 -0.991660
vn -0.093832 0.029124 -0.995162
vn 0.002533 0.952021 0.306023
vn -0.018821 0.892539 0.450578
vn -0.056529 0.910214 0.410262
vn -0.016935 0.960251 0.278623
vn -0.118254 -0.354558 -0.927526
vn -0.111951 0.230126 -0.966700
vn -0.034514 0.955083 0.294320
vn -0.074329 0.895272 0.439276
vn 0.075879 0.966998 0.243222
vn 0.064573 0.928414 0.365894
vn 0.074258 0.933270 0.351415
vn 0.065770 0.960692 0.269715
vn 0.039748 -0.525394 -0.849930
vn 0.037998 -0.583889 -0.810944
vn -0.023930 -0.072689 -0.997068
vn 0.080525 0.001484 -0.996751
vn -0.556367 0.810079 0.185009
vn -0.419592 0.879925 0.222878
vn -0.444166 0.873348 0.199948
vn -0.566742 0.807269 0.164684
vn -0.185517 0.963721 0.191900
vn -0.166566 0.960791 0.221667
vn -0.093615 0.970861 0.220600
vn -0.093380 0.975784 0.197804
vn 0.038271 0.976947 0.210025
vn 0.038559 0.980369 0.193364
vn 0.077335 0.978698 0.190183
vn 0.085111 0.973990 0.209999
vn 0.051785 0.976431 0.209523
vn 0.042833 0.980639 0.191084
vn -0.018420 0.980278 0.196765
vn -0.010843 0.985427 0.169753
vn 0.089795 0.975932 0.198731
vn 0.086824 0.982457 0.165047
vn 0.527981 0.806035 0.267478
vn 0.557320 0.786246 0.266855
vn -0.031020 -0.999371 0.017178
vn -0.045356 -0.998910 -0.011064
vn -0.041062 -0.999082 -0.012244
vn -0.027140 -0.999434 0.019877
vn -0.015631 -0.999723 -0.017602
vn -0.003675 -0.999501 0.031372
vn -0.003951 -0.999876 -0.015260
vn -0.000078 -0.999399 0.034653
vn 0.000076 -0.999369 0.035524
vn 0.001190 -0.999920 -0.012579
vn 0.017380 -0.999697 -0.017447
vn 0.002766 -0.999449 0.033084
vn 0.055435 -0.998271 -0.019538
vn 0.039746 -0.999005 0.020233
vn -0.023950 -0.999308 0.028445
vn -0.027139 -0.999284 0.026350
vn -0.824509 0.522030 -0.218335
vn -0.648258 0.749959 -0.131616
vn -0.000059 -0.999023 0.044196
vn 0.000015 -0.999023 0.044190
vn 0.035067 -0.998930 0.030142
vn 0.000015 -0.999024 0.044174
vn 0.000015 -0.999024 0.044177
vn -0.099777 0.916870 0.386516
vn -0.063861 0.885594 0.460048
vn 0.026144 0.875526 0.482463
vn 0.112113 0.884692 0.452495
vn 0.095285 0.882634 0.460303
vn 0.077119 0.888922 0.451520
vn 0.077119 0.888922 0.451520
vn 0.088428 0.926948 0.364620
vn -0.018347 -0.999390 -0.029733
vn -0.027232 -0.999367 -0.022889
vn -0.038022 -0.999151 -0.015853
vn -0.032048 -0.999145 -0.026118
vn -0.009124 -0.999415 -0.032964
vn -0.009115 -0.999474 -0.031129
vn -0.013814 -0.999455 -0.029996
vn -0.014477 -0.999372 -0.032346
vn 0.017167 -0.999298 -0.033289
vn 0.018498 -0.999331 -0.031547
vn 0.003632 -0.999491 -0.031691
vn 0.004072 -0.999394 -0.034576
vn 0.036056 -0.999150 -0.019990
vn 0.037724 -0.999072 -0.020805
vn -0.216038 0.921934 0.321505
vn -0.263297 0.902198 0.341633
vn -0.283331 0.892892 0.349953
vn -0.216038 0.921934 0.321505
vn 0.035754 -0.999179 -0.019041
vn 0.022441 -0.999659 -0.013385
vn 0.056698 -0.998272 -0.015462
vn 0.044685 -0.998819 0.019092
vn 0.038628 -0.998840 0.028739
vn -0.090202 0.917044 0.388452
vn -0.025477 0.913626 0.405757
vn -0.035844 0.912714 0.407024
vn -0.091742 0.914519 0.394004
vn 0.055204 0.914130 0.401645
vn 0.026688 0.928091 0.371395
vn 0.027526 0.941762 0.335151
vn 0.141884 0.937315 0.318292
vn 0.287042 0.887399 0.360736
vn 0.739286 0.658430 0.141159
vn 0.865312 0.497025 0.064819
vn 0.918481 0.181513 -0.351348
vn 0.034200 0.210678 -0.976957
vn -0.003337 0.017693 -0.999838
vn 0.004674 0.029325 -0.999559
vn 0.005213 0.122612 -0.992441
vn -0.012975 0.253860 -0.967154
vn -0.009926 0.140548 -0.990024
vn -0.017948 0.289950 -0.956873
vn -0.893439 0.346467 -0.285880
vn -0.779736 0.618475 0.097469
vn -0.417006 0.851848 0.316957
vn -0.040880 0.959367 0.279183
vn -0.003970 0.961924 0.273289
vn -0.021829 0.972668 0.231171
vn -0.066007 0.969507 0.236007
vn 0.044973 0.966769 0.251664
vn 0.020478 0.960467 0.277639
vn 0.042124 0.941674 0.333879
vn 0.153885 0.923039 0.352589
vn 0.541696 0.767143 0.343595
vn 0.844904 0.519913 0.125812
vn 0.880352 0.473871 -0.020638
vn 0.841888 0.467597 -0.269401
vn 0.014498 0.762231 -0.647142
vn 0.008030 0.729681 -0.683741
vn -0.010733 0.741374 -0.671006
vn -0.021419 0.773256 -0.633732
vn -0.017588 0.786376 -0.617498
vn 0.033166 0.772791 -0.633793
vn 0.034768 0.775451 -0.630450
vn -0.852972 0.447817 -0.268140
vn -0.835867 0.543393 0.077784
vn -0.613970 0.747136 0.254615
s 1
g Projectile_Ramp_Ice:Ice_Ramp
usemtl Projectile_Ramp_Ice:initialShadingGroup
f 12/1/1 71/2/2 72/3/3 4/4/4
f 75/5/5 76/6/6 11/7/7 6/8/8
f 79/9/9 80/10/10 15/11/11 19/12/12
f 16/13/13 67/14/14 68/15/15 18/16/16
f 80/10/10 81/17/17 53/18/18 15/11/11
f 56/19/19 66/20/20 67/14/14 16/13/13
f 64/21/21 69/22/22 70/23/23 22/24/24
f 77/25/25 78/26/26 61/27/27 23/28/28
f 22/24/24 70/23/23 71/2/2 12/1/1
f 76/6/6 77/25/25 23/28/28 11/7/7
f 146/29/29 125/30/30 26/31/31 83/32/32
f 54/33/33 126/34/34 127/35/35 27/36/36
f 27/36/36 127/35/35 128/37/37 29/38/38
f 62/39/39 129/40/40 130/41/41 32/42/42
f 32/42/42 130/41/41 131/43/43 34/44/44
f 34/44/44 131/43/43 132/45/45 35/46/46
f 35/46/46 132/45/45 133/47/47 74/48/48
f 37/49/49 136/50/50 137/51/51 39/52/52
f 39/52/52 137/51/51 138/53/53 41/54/54
f 41/54/54 138/53/53 139/55/55 59/56/56
f 44/57/57 140/58/58 141/59/59 45/60/60
f 45/60/60 141/59/59 142/61/61 51/62/62
f 11/7/7 34/44/44 35/46/46 6/8/8
f 37/49/49 39/52/52 10/63/63 8/64/64
f 35/46/46 74/48/48 75/5/5 6/8/8
f 82/65/65 83/32/32 26/31/31 5/66/66
f 44/57/57 45/60/60 14/67/67 20/68/68
f 15/11/11 27/36/36 29/38/38 19/12/12
f 51/62/62 52/69/69 14/67/67 45/60/60
f 53/18/18 54/33/33 27/36/36 15/11/11
f 61/27/27 62/39/39 32/42/42 23/28/28
f 24/70/70 41/54/54 59/56/56 60/71/71
f 55/72/72 56/19/19 16/13/13 28/73/73
f 30/74/74 28/73/73 16/13/13 18/16/16
f 22/24/24 31/75/75 63/76/76 64/21/21
f 36/77/77 33/78/78 12/1/1 4/4/4
f 72/3/3 73/79/79 36/77/77 4/4/4
f 9/80/80 40/81/81 38/82/82 2/83/83
f 57/84/84 58/85/85 42/86/86 21/87/87
f 13/88/88 46/89/89 43/90/90 17/91/91
f 49/92/92 50/93/93 46/89/89 13/88/88
f 25/94/94 84/95/95 65/96/96 3/97/97
f 33/78/78 31/75/75 22/24/24 12/1/1
f 23/28/28 32/42/42 34/44/44 11/7/7
f 39/52/52 41/54/54 24/70/70 10/63/63
f 21/87/87 42/86/86 40/81/81 9/80/80
f 48/98/98 50/93/93 49/92/92 1/99/99
f 51/62/62 142/61/61 143/100/100 47/101/101
f 7/102/102 52/69/69 51/62/62 47/101/101
f 5/66/66 53/18/18 81/17/17 82/65/65
f 26/31/31 54/33/33 53/18/18 5/66/66
f 26/31/31 125/30/30 126/34/34 54/33/33
f 3/97/97 56/19/19 55/72/72 25/94/94
f 65/96/96 66/20/20 56/19/19 3/97/97
f 17/91/91 43/90/90 58/85/85 57/84/84
f 59/56/56 139/55/55 140/58/58 44/57/57
f 60/71/71 59/56/56 44/57/57 20/68/68
f 78/26/26 79/9/9 19/12/12 61/27/27
f 19/12/12 29/38/38 62/39/39 61/27/27
f 29/38/38 128/37/37 129/40/40 62/39/39
f 64/21/21 63/76/76 30/74/74 18/16/16
f 18/16/16 68/15/15 69/22/22 64/21/21
f 85/103/103 86/104/104 66/20/20 65/96/96
f 67/14/14 66/20/20 86/104/104 87/105/105
f 68/15/15 67/14/14 87/105/105 88/106/106
f 69/22/22 68/15/15 88/106/106 89/107/107
f 70/23/23 69/22/22 89/107/107 90/108/108
f 71/2/2 70/23/23 90/108/108 91/109/109
f 72/3/3 71/2/2 91/109/109 92/110/110
f 92/110/110 93/111/111 73/79/79 72/3/3
f 74/48/48 133/47/47 134/112/112 94/113/113
f 75/5/5 74/48/48 94/113/113 95/114/114
f 95/114/114 96/115/115 76/6/6 75/5/5
f 96/115/115 97/116/116 77/25/25 76/6/6
f 97/116/116 98/117/117 78/26/26 77/25/25
f 98/117/117 99/118/118 79/9/9 78/26/26
f 99/118/118 100/119/119 80/10/10 79/9/9
f 100/119/119 101/120/120 81/17/17 80/10/10
f 82/65/65 81/17/17 101/120/120 102/121/121
f 102/121/121 103/122/122 83/32/32 82/65/65
f 145/123/123 146/29/29 83/32/32 103/122/122
f 65/96/96 84/95/95 104/124/124 85/103/103
f 105/125/125 106/126/126 86/104/104 85/103/103
f 87/105/105 86/104/104 106/126/126 107/127/127
f 88/106/106 87/105/105 107/127/127 108/128/128
f 89/107/107 88/106/106 108/128/128 109/129/129
f 90/108/108 89/107/107 109/129/129 110/130/130
f 91/109/109 90/108/108 110/130/130 111/131/131
f 92/110/110 91/109/109 111/131/131 112/132/132
f 112/132/132 113/133/133 93/111/111 92/110/110
f 94/113/113 134/112/112 135/134/134 114/135/135
f 95/114/114 94/113/113 114/135/135 115/136/136
f 115/136/136 116/137/137 96/115/115 95/114/114
f 116/137/137 117/138/138 97/116/116 96/115/115
f 117/138/138 118/139/139 98/117/117 97/116/116
f 118/139/139 119/140/140 99/118/118 98/117/117
f 119/140/140 120/141/141 100/119/119 99/118/118
f 120/141/141 121/142/142 101/120/120 100/119/119
f 102/121/121 101/120/120 121/142/142 122/143/143
f 122/143/143 123/144/144 103/122/122 102/121/121
f 144/145/145 145/123/123 103/122/122 123/144/144
f 85/103/103 104/124/124 124/146/146 105/125/125
f 1/147/99 49/148/92 106/126/126 105/125/125
f 107/127/127 106/126/126 49/148/92 13/149/88
f 108/128/128 107/127/127 13/149/88 17/150/91
f 109/129/129 108/128/128 17/150/91 57/151/84
f 110/130/130 109/129/129 57/151/84 21/152/87
f 111/131/131 110/130/130 21/152/87 9/153/80
f 112/132/132 111/131/131 9/153/80 2/154/83
f 2/154/83 38/155/82 113/133/133 112/132/132
f 114/135/135 135/134/134 136/156/50 37/157/49
f 115/136/136 114/135/135 37/157/49 8/158/64
f 10/159/63 116/137/137 115/136/136 8/158/64
f 24/160/70 117/138/138 116/137/137 10/159/63
f 60/161/71 118/139/139 117/138/138 24/160/70
f 20/162/68 119/140/140 118/139/139 60/161/71
f 14/163/67 120/141/141 119/140/140 20/162/68
f 52/164/69 121/142/142 120/141/141 14/163/67
f 122/143/143 121/142/142 52/164/69 7/165/102
f 7/165/102 47/166/101 123/144/144 122/143/143
f 143/167/100 144/145/145 123/144/144 47/166/101
f 105/125/125 124/146/146 48/168/98 1/147/99
f 126/34/34 125/30/30 25/94/94 55/72/72
f 127/35/35 126/34/34 55/72/72 28/73/73
f 128/37/37 127/35/35 28/73/73 30/74/74
f 129/40/40 128/37/37 30/74/74 63/76/76
f 130/41/41 129/40/40 63/76/76 31/75/75
f 131/43/43 130/41/41 31/75/75 33/78/78
f 132/45/45 131/43/43 33/78/78 36/77/77
f 133/47/47 132/45/45 36/77/77 73/79/79
f 134/112/112 133/47/47 73/79/79 93/111/111
f 135/134/134 134/112/112 93/111/111 113/133/133
f 136/156/50 135/134/134 113/133/133 38/155/82
f 137/51/51 136/50/50 38/82/82 40/81/81
f 138/53/53 137/51/51 40/81/81 42/86/86
f 139/55/55 138/53/53 42/86/86 58/85/85
f 140/58/58 139/55/55 58/85/85 43/90/90
f 141/59/59 140/58/58 43/90/90 46/89/89
f 142/61/61 141/59/59 46/89/89 50/93/93
f 143/100/100 142/61/61 50/93/93 48/98/98
f 124/146/146 144/145/145 143/167/100 48/168/98
f 104/124/124 145/123/123 144/145/145 124/146/146
f 84/95/95 146/29/29 145/123/123 104/124/124
f 25/94/94 125/30/30 146/29/29 84/95/95
