# This file uses centimeters as units for non-parametric coordinates.

mtllib Projectile_Icicle.mtl
g default
v 12.606951 193.600250 13.488481
v -13.973772 192.175659 12.779773
v 29.296490 168.782761 33.199745
v -28.642410 165.083252 27.911690
v 27.286604 163.845306 -33.090004
v -28.586004 162.460358 -32.324436
v 12.895449 194.175095 -12.793432
v -12.957566 194.175095 -12.793432
v 2.083197 196.634995 16.948864
v -0.122378 201.199783 -15.594230
v 0.357738 164.841461 -46.811943
v 1.079439 166.663895 39.760895
v 42.932972 165.990265 6.586348
v -40.953396 168.991028 -0.408753
v -17.289324 196.567474 1.673665
v 4.642280 211.860596 7.655966
v 16.369745 197.228165 3.322133
v 1.829728 76.387047 -17.358025
v -16.178579 73.657364 1.892928
v -13.783726 77.930405 -13.986239
v 16.748032 74.044914 3.614144
v 12.047390 77.824036 -15.501031
v 14.976942 76.120369 12.897368
v 4.486097 75.678993 17.402317
v -13.968390 72.360519 12.765692
v 0.952286 27.213074 -12.599789
v 5.692357 1.420990 1.868215
v -12.143488 25.514862 1.579128
v -10.165776 36.257217 -11.900750
v 11.303247 26.592270 2.275957
v 7.309138 34.584641 -12.320930
v 10.830558 33.380478 9.543159
v 4.056473 22.394531 11.801451
v -10.974612 30.517792 9.732743
v -37.262703 139.329147 2.230722
v -19.210251 104.199089 -0.278328
v -25.953747 149.737717 -27.246153
v -16.245228 106.945877 -13.726146
v 0.730897 145.778763 -42.570126
v 1.950745 108.732315 -19.695808
v 26.411491 149.640381 -29.467335
v 13.063024 104.765137 -15.256236
v 46.173988 139.665054 10.182926
v 20.356379 99.590485 4.267023
v 27.813545 136.986389 25.180222
v 17.130285 103.763763 13.177595
v 3.090775 143.279327 34.098370
v 5.300550 103.382507 19.698359
v -27.627661 140.156174 24.259256
v -14.794443 101.526619 11.364596
v -38.164646 129.914795 -7.014540
v -26.557497 114.871452 -7.018758
v -34.218079 130.627960 -21.708206
v -25.555685 115.580360 -13.749772
v -28.895727 122.177261 3.966430
v -32.647488 120.750717 -3.959816
v -28.605644 122.401993 -20.853458
v -20.139669 128.231628 -22.378712
v 2.738140 127.358902 -26.712177
v 16.655195 128.839279 -20.153597
v 19.370810 125.020966 16.784580
v 4.383679 126.776016 23.582724
v -21.981909 122.266479 16.362057
v 15.007731 194.389450 -7.406154
v 3.511308 213.875305 -6.672173
v -15.189736 194.175095 -7.503019
v -33.929668 164.537201 -16.426046
v -37.221119 145.987656 -15.353662
v -40.149712 132.631546 -15.583933
v -25.265093 113.745720 -10.233296
v -19.116198 100.336533 -7.812390
v -16.063551 76.092796 -6.790450
v -11.028955 32.098679 -6.334505
v 3.890366 7.759125 -6.166197
v 10.425522 30.441833 -6.015230
v 15.428142 76.937401 -5.680749
v 18.384310 105.807098 -3.867613
v 28.865643 124.339386 -11.371885
v 37.197731 139.733582 -9.406662
v 36.860035 163.203445 -13.287909
v -36.417431 121.834572 -8.454435
v -32.593224 119.429260 -9.793825
v -37.097496 120.565521 -14.118320
v -32.746719 117.806137 -11.970081
v -38.890182 126.773666 -14.712425
v -37.677319 126.836685 -10.071424
v -33.771416 121.108223 -17.568855
v -35.015789 125.763687 -17.493610
v -31.728271 118.949646 -14.357064
v 30.001612 114.531319 -0.357238
v 37.475998 121.000992 -6.110614
v 27.103842 113.730583 5.187281
v 30.624226 121.764435 17.365986
v 26.715912 115.693054 9.828253
v 44.684303 129.220444 -3.264879
v 45.938595 131.509521 10.262963
v 38.037949 129.436462 21.610851
v 35.925850 116.801971 3.220641
v 40.484161 118.181343 1.716202
v 39.563702 118.841553 7.654693
v 35.276138 116.937927 6.659665
v 36.995937 119.025093 12.636177
v 34.105225 117.836746 9.504944
v 43.725929 122.927330 2.610207
v 43.725090 123.184265 8.888798
v 39.782703 123.351074 13.221120
v 2.465208 51.245560 -14.932938
v 10.429190 53.325104 -13.632981
v 13.078027 51.812004 -5.792305
v 15.265469 48.612000 3.300842
v 13.884303 51.160980 11.910896
v 3.720093 50.232368 14.880075
v -12.381638 48.169876 10.296473
v -13.919426 49.144836 1.949738
v -13.189391 52.596909 -6.042349
v -11.605280 53.787033 -12.886400
v -7.005460 156.108383 46.773079
v -27.727179 156.810165 42.939907
v -21.670778 142.446320 33.955566
v -5.329244 140.928299 38.988773
v -7.490535 194.220947 14.946324
v -10.554880 209.304764 7.327920
v -8.836649 213.875259 -6.259375
v -6.828270 194.175095 -15.069929
v -12.537035 162.550095 -39.416451
v -11.160799 150.176300 -33.852901
v -9.197150 131.843216 -27.324768
v -7.481679 109.463516 -17.822226
v -6.081992 76.626068 -15.909822
v -4.649330 52.525558 -14.041250
v -4.350041 32.428833 -12.305070
v -4.725775 16.780487 -7.084912
v -5.864016 5.564560 0.621205
v -5.577930 28.062683 12.724355
v -4.965129 49.416496 13.898594
v -5.408675 73.887062 16.170336
v -5.952543 101.908798 18.079641
v -7.549394 123.638367 20.597532
v -10.914011 140.671539 28.508972
v -13.945955 141.306625 37.332680
v -17.675844 156.443298 46.778519
v -12.444439 166.912933 34.081223
v -29.961699 155.795258 -32.201752
v -13.175802 151.171356 -39.655109
v 0.314182 153.682266 -47.364349
v 30.547588 153.560791 -33.777859
v 41.735920 151.589066 -12.623596
v 49.351475 152.528793 8.719517
v 32.426445 151.212280 34.706612
v 6.532384 152.541290 39.013889
v -5.592890 148.071808 44.780289
v -16.381626 146.210846 44.456062
v -25.491781 147.821014 39.240295
v -30.517122 154.131805 30.728554
v -47.507679 155.904358 0.490551
v -43.765717 154.198517 -16.907585
v -8.880089 179.572372 22.055332
v 0.711156 179.331879 25.509747
v 18.874155 179.484818 20.142368
v 29.110432 178.068680 2.125411
v 24.568411 178.152710 -10.367109
v 17.711206 178.371414 -19.663347
v 0.414377 178.710876 -29.020046
v -8.922066 177.930054 -25.663460
v -17.465216 177.899490 -19.394444
v -22.748913 178.607193 -11.657571
v -26.038242 180.124847 -0.473470
v -17.485023 178.793243 17.314655
vt 0.334810 0.239046
vt 0.326513 0.284831
vt 0.283826 0.265594
vt 0.291707 0.240487
vt 0.743371 0.836622
vt 0.731994 0.888832
vt 0.702037 0.882354
vt 0.713369 0.845540
vt 0.186303 0.186072
vt 0.153187 0.141118
vt 0.199892 0.126618
vt 0.210906 0.178957
vt 0.262636 0.204156
vt 0.249443 0.242206
vt 0.216848 0.223861
vt 0.233201 0.182248
vt 0.243307 0.131043
vt 0.291997 0.156713
vt 0.139038 0.356756
vt 0.105028 0.306321
vt 0.153226 0.279575
vt 0.186244 0.307535
vt 0.195676 0.248149
vt 0.223014 0.272563
vt 0.092893 0.254742
vt 0.116347 0.168529
vt 0.174500 0.216194
vt 0.145451 0.258680
vt 0.656348 0.939966
vt 0.690232 0.909141
vt 0.711091 0.915034
vt 0.704837 0.954662
vt 0.226455 0.321071
vt 0.261219 0.296647
vt 0.308247 0.328697
vt 0.234253 0.373316
vt 0.615923 0.886988
vt 0.650212 0.889854
vt 0.664067 0.850095
vt 0.681280 0.834310
vt 0.698613 0.772187
vt 0.726498 0.756954
vt 0.752253 0.750449
vt 0.779731 0.756330
vt 0.782688 0.838344
vt 0.761730 0.824455
vt 0.807649 0.761945
vt 0.838710 0.754731
vt 0.556319 0.950333
vt 0.802869 0.859332
vt 0.585659 0.939184
vt 0.523045 0.880159
vt 0.554898 0.862087
vt 0.617310 0.924735
vt 0.570059 0.830438
vt 0.602804 0.808779
vt 0.633458 0.792135
vt 0.665681 0.782835
vt 0.557903 0.506203
vt 0.610009 0.486018
vt 0.647546 0.564465
vt 0.594211 0.592257
vt 0.663397 0.476281
vt 0.655051 0.461128
vt 0.672212 0.457733
vt 0.673297 0.476476
vt 0.718482 0.539691
vt 0.741626 0.442932
vt 0.787152 0.430882
vt 0.762573 0.530323
vt 0.803223 0.534626
vt 0.829149 0.455959
vt 0.250902 0.764306
vt 0.355464 0.775084
vt 0.337731 0.664701
vt 0.320650 0.659368
vt 0.332684 0.645247
vt 0.346739 0.655043
vt 0.344954 0.632964
vt 0.354437 0.645759
vt 0.445143 0.669997
vt 0.400395 0.593143
vt 0.449129 0.548743
vt 0.497137 0.635416
vt 0.545946 0.613594
vt 0.502189 0.536411
vt 0.599397 0.332033
vt 0.656438 0.325836
vt 0.666710 0.365811
vt 0.604086 0.407473
vt 0.725618 0.312498
vt 0.792225 0.329479
vt 0.787237 0.352716
vt 0.728652 0.348074
vt 0.847320 0.324023
vt 0.964987 0.365785
vt 0.150417 0.724673
vt 0.841648 0.359153
vt 0.226898 0.666769
vt 0.180607 0.641209
vt 0.224127 0.573115
vt 0.267390 0.595343
vt 0.298144 0.496665
vt 0.371283 0.441181
vt 0.407315 0.475995
vt 0.344550 0.548183
vt 0.456346 0.439767
vt 0.442789 0.413915
vt 0.469565 0.398580
vt 0.482488 0.425647
vt 0.492675 0.368969
vt 0.522049 0.428264
vt 0.687576 0.569352
vt 0.704572 0.666707
vt 0.672310 0.682856
vt 0.765779 0.660052
vt 0.733111 0.655640
vt 0.430410 0.835344
vt 0.798041 0.661619
vt 0.459131 0.805599
vt 0.380070 0.729826
vt 0.422366 0.712356
vt 0.491790 0.785848
vt 0.553955 0.726207
vt 0.514567 0.753023
vt 0.593254 0.711588
vt 0.630478 0.701388
vt 0.641302 0.476200
vt 0.664285 0.506470
vt 0.668987 0.416709
vt 0.641488 0.433108
vt 0.705761 0.455113
vt 0.694524 0.496166
vt 0.681025 0.508261
vt 0.669399 0.436631
vt 0.654278 0.441397
vt 0.696693 0.420735
vt 0.305033 0.648168
vt 0.315231 0.632593
vt 0.330314 0.622117
vt 0.469527 0.471013
vt 0.686180 0.456947
vt 0.684858 0.440101
vt 0.682726 0.472748
vt 0.768790 0.871795
vt 0.753683 0.914302
vt 0.741387 0.957977
vt 0.284824 0.713161
vt 0.302215 0.681273
vt 0.347990 0.686967
vt 0.374415 0.672251
vt 0.383297 0.650550
vt 0.365065 0.612932
vt 0.275928 0.653450
vt 0.291890 0.613054
vt 0.330635 0.590468
vt 0.428301 0.382639
vt 0.386805 0.310233
vt 0.411052 0.229125
vt 0.456544 0.369360
vt 0.412160 0.425432
vt 0.430383 0.451262
vt 0.356238 0.377988
vt 0.400134 0.397219
vt 0.728167 0.286100
vt 0.794860 0.284149
vt 0.855802 0.282373
vt 0.967885 0.322056
vt 0.137010 0.618990
vt 0.110035 0.421887
vt 0.252440 0.445206
vt 0.586407 0.277364
vt 0.661255 0.273690
vt 0.043394 0.345768
vt 0.010966 0.246133
vt 0.051472 0.113508
vt 0.109346 0.076234
vt 0.182634 0.042865
vt 0.257701 0.063791
vt 0.336236 0.102382
vt 0.086683 0.690276
vt 0.123198 0.713065
vt 0.839155 0.658110
vt 0.497991 0.900339
vt 0.948389 0.389696
vt 0.887162 0.472619
vt 0.847980 0.557535
vt 0.827305 0.830613
vt 0.177380 0.539389
vt 0.397948 0.327367
vt 0.478162 0.321904
vn -0.330833 0.740723 0.584705
vn -0.337914 0.720563 0.605478
vn -0.065733 0.911890 0.405136
vn -0.488267 0.802754 0.342318
vn -0.928223 -0.205953 -0.309815
vn -0.590799 -0.426609 -0.684808
vn -0.545453 -0.727807 0.415666
vn -0.967163 -0.251940 0.033499
vn -0.135417 0.823920 -0.550289
vn -0.324293 0.748746 -0.578112
vn -0.337063 0.725099 -0.600517
vn -0.481831 0.722774 -0.495416
vn -0.510874 0.859199 0.028021
vn 0.000000 1.000000 0.000000
vn 0.000000 1.000000 0.000000
vn -0.541994 0.829267 -0.136233
vn -0.546300 0.774242 -0.319539
vn -0.550556 0.772149 -0.317292
vn 0.609916 0.757353 -0.233279
vn 0.642752 0.734036 -0.219228
vn 0.482068 0.867962 -0.119387
vn 0.425285 0.905059 0.000492
vn 0.000000 1.000000 0.000000
vn 0.000000 1.000000 0.000000
vn 0.272509 0.791010 -0.547762
vn 0.269019 0.811870 -0.518166
vn 0.034731 0.848141 -0.528631
vn 0.385432 0.780672 -0.491928
vn 0.967187 -0.241922 0.077605
vn 0.445975 -0.772014 0.452881
vn 0.545410 -0.517880 -0.659035
vn 0.883476 -0.220445 -0.413369
vn 0.356513 0.883003 0.305292
vn -0.018518 0.923766 0.382510
vn 0.105560 0.845058 0.524150
vn 0.105500 0.845168 0.523985
vn 0.714623 -0.208465 0.667725
vn 0.277085 -0.339553 0.898848
vn -0.298390 -0.277670 0.913161
vn -0.847540 -0.188737 0.496038
vn -0.995435 -0.088550 0.035599
vn -0.986600 -0.102861 -0.126647
vn -0.679764 -0.110620 -0.725041
vn -0.121187 -0.086168 -0.988883
vn -0.240740 -0.208994 -0.947822
vn -0.667347 -0.160091 -0.727337
vn 0.027163 -0.092657 -0.995328
vn 0.616178 -0.119269 -0.778524
vn 0.554055 -0.176078 -0.813646
vn 0.161452 -0.245638 -0.955822
vn 0.959624 -0.110071 -0.258856
vn 0.993821 -0.110032 -0.014599
vn 0.725196 -0.123696 0.677341
vn 0.139904 -0.102674 0.984827
vn -0.168195 -0.093125 0.981345
vn -0.845631 -0.094139 0.525400
vn -0.718919 -0.444145 0.534688
vn -0.770414 -0.350228 0.532732
vn -0.923302 -0.203680 0.325620
vn -0.794314 -0.171580 0.582774
vn 0.168016 -0.636503 0.752751
vn -0.600798 -0.383181 0.701579
vn -0.611897 -0.773400 -0.165635
vn 0.183338 -0.941675 0.282196
vn -0.462276 -0.204444 -0.862846
vn -0.174900 -0.364896 -0.914473
vn -0.284738 -0.431510 -0.855993
vn -0.193695 -0.268978 -0.943469
vn 0.079159 -0.251844 -0.964525
vn 0.120379 -0.504099 -0.855215
vn 0.407084 -0.494554 -0.767919
vn 0.500535 -0.283420 -0.818008
vn -0.062751 -0.890843 -0.449957
vn 0.593182 -0.588487 -0.549379
vn 0.678057 -0.697030 0.233211
vn -0.049954 -0.989656 0.134481
vn 0.166658 -0.594642 0.786528
vn -0.360917 -0.812783 0.457300
vn 0.614465 -0.210343 0.760388
vn 0.195095 -0.475983 0.857542
vn 0.090587 -0.396569 0.913525
vn 0.151900 -0.111043 0.982138
vn -0.272218 -0.107703 0.956189
vn -0.352291 -0.381954 0.854402
vn -0.827093 -0.539031 0.159260
vn -0.773254 -0.555496 -0.305783
vn -0.807654 -0.464059 -0.363791
vn -0.738894 -0.624345 0.253433
vn -0.441812 -0.785825 -0.432761
vn -0.235548 -0.880645 -0.411075
vn -0.316381 -0.650799 -0.690191
vn -0.435195 -0.517433 -0.736796
vn 0.120432 -0.792905 -0.597326
vn 0.509227 -0.680637 -0.526708
vn 0.370208 -0.761161 -0.532522
vn 0.111510 -0.845664 -0.521936
vn 0.716496 -0.422937 -0.554760
vn 0.728080 -0.567934 -0.383862
vn 0.877280 -0.464028 0.122710
vn 0.889202 -0.409258 0.204519
vn 0.590256 -0.498444 0.634942
vn 0.167255 -0.574444 0.801274
vn 0.127945 -0.727368 0.674215
vn 0.246592 -0.674445 0.695928
vn -0.100278 -0.981229 0.164723
vn -0.215641 -0.692384 0.688551
vn -0.644683 -0.669869 0.368319
vn -0.420626 -0.904324 0.072608
vn -0.791156 -0.553143 0.260968
vn -0.576911 -0.770883 0.270024
vn -0.953640 -0.270878 -0.131135
vn -0.982982 -0.109703 -0.147352
vn -0.984537 -0.074306 0.158634
vn -0.214346 -0.075864 -0.973807
vn -0.625371 -0.090928 -0.775012
vn 0.613118 -0.077097 -0.786221
vn 0.027220 -0.077627 -0.996611
vn 0.951524 -0.080829 -0.296765
vn 0.786749 -0.330673 -0.521230
vn 0.945337 -0.321752 -0.053042
vn 0.995335 -0.094744 -0.018223
vn 0.131787 -0.081659 0.987909
vn 0.711565 -0.098089 0.695739
vn -0.221384 -0.087229 0.971278
vn -0.829913 -0.076777 0.552584
vn -0.549660 -0.264256 0.792492
vn -0.259500 -0.605864 0.752056
vn -0.920248 0.220977 -0.322976
vn -0.906091 0.172564 0.386290
vn -0.037952 -0.344684 -0.937951
vn 0.026433 -0.678825 -0.733824
vn -0.301160 -0.933785 0.193257
vn -0.936562 -0.013052 -0.350258
vn -0.911985 0.192778 0.362105
vn -0.432527 -0.013504 -0.901520
vn 0.939777 0.001952 -0.341784
vn 0.958342 -0.027452 0.284302
vn 0.650791 -0.078101 0.755229
vn -0.252888 -0.853898 0.454870
vn -0.093324 -0.528063 -0.844062
vn -0.474565 -0.017762 -0.880041
vn 0.339477 -0.825698 -0.450532
vn 0.510702 -0.423864 -0.748013
vn 0.348959 -0.422138 -0.836676
vn -0.090793 -0.776247 -0.623857
vn -0.216978 -0.975856 0.025003
vn -0.107270 -0.686559 0.719118
vn -0.091205 -0.440187 0.893262
vn 0.843733 0.106715 -0.526048
vn 0.919151 0.318971 0.231125
vn 0.488805 -0.052136 0.870834
vn -0.279026 0.340928 0.897726
vn -0.168990 0.580907 0.796235
vn -0.778627 0.393519 0.488757
vn -0.577827 0.210505 0.788545
vn 0.336246 -0.570983 0.748944
vn 0.217515 -0.909103 0.355272
vn 0.035313 0.405902 0.913234
vn 0.057421 0.146410 0.987556
vn -0.607254 0.328776 -0.723290
vn -0.279997 0.351579 -0.893305
vn 0.085032 0.392917 -0.915634
vn 0.504406 0.377289 -0.776677
vn 0.883068 0.376464 -0.280117
vn 0.876599 0.478022 0.055404
vn 0.488919 0.458061 0.742387
vn -0.903156 0.417646 0.099403
vn -0.869319 0.423567 -0.254708
s 1
g Icicle_Model
usemtl Projectile_EarthSpike_0001:initialShadingGroup
f 168/1/1 157/2/2 121/3/3 2/4/4
f 73/5/5 132/6/6 133/7/7 28/8/8
f 124/9/9 164/10/10 165/11/11 8/12/12
f 15/13/13 122/14/14 123/15/15 66/16/16
f 166/17/17 167/18/18 15/13/13 66/16/16
f 160/19/19 161/20/20 64/21/21 17/22/22
f 64/21/21 65/23/23 16/24/24 17/22/22
f 162/25/25 163/26/26 10/27/27 7/28/28
f 30/29/29 27/30/30 74/31/31 75/32/32
f 1/33/33 9/34/34 158/35/35 159/36/36
f 32/37/37 33/38/38 27/30/30 30/29/29
f 28/8/8 133/7/7 134/39/39 34/40/40
f 2/4/4 15/13/13 167/18/18 168/1/1
f 121/3/3 122/14/14 15/13/13 2/4/4
f 17/22/22 16/24/24 9/34/34 1/33/33
f 159/36/36 160/19/19 17/22/22 1/33/33
f 114/41/41 115/42/42 73/5/5 28/8/8
f 116/43/43 130/44/44 131/45/45 29/46/46
f 107/47/47 108/48/48 31/188/49 26/50/50
f 75/51/32 109/52/51 110/53/52 30/54/29
f 111/55/53 112/56/54 33/38/38 32/37/37
f 110/53/52 111/55/53 32/37/37 30/54/29
f 134/39/39 135/57/55 113/58/56 34/40/40
f 113/58/56 114/41/41 28/8/8 34/40/40
f 63/59/57 55/60/58 36/61/59 50/62/60
f 82/63/61 81/64/62 83/65/63 84/66/64
f 38/67/65 58/68/66 127/69/67 128/70/68
f 40/71/69 59/72/70 60/186/71 42/187/72
f 98/75/73 99/76/74 100/77/75 101/78/76
f 101/78/76 100/77/75 102/79/77 103/80/78
f 46/81/79 61/82/80 62/83/81 48/84/82
f 137/85/83 138/86/84 63/59/57 50/62/60
f 155/87/85 156/88/86 68/89/87 35/90/88
f 143/91/89 144/92/90 126/93/91 37/94/92
f 145/95/93 146/96/94 41/185/95 39/98/96
f 79/99/97 147/100/98 148/101/99 43/102/100
f 149/103/101 150/104/102 47/105/103 45/106/104
f 148/101/99 149/103/101 45/106/104 43/102/100
f 140/107/105 152/108/106 153/109/107 119/110/108
f 154/111/109 155/87/85 35/90/88 49/112/110
f 36/61/59 71/113/111 72/114/112 19/115/113
f 38/67/65 128/70/68 129/116/114 20/117/115
f 40/71/69 42/187/72 22/183/116 18/119/117
f 76/120/118 77/121/119 44/122/120 21/123/121
f 46/81/79 48/84/82 24/124/122 23/125/123
f 44/122/120 46/81/79 23/125/123 21/123/121
f 136/126/124 137/85/83 50/62/60 25/127/125
f 50/62/60 36/61/59 19/115/113 25/127/125
f 36/61/59 55/60/58 56/128/126 52/129/127
f 35/90/88 68/89/87 69/130/128 51/131/129
f 57/132/130 58/68/66 38/67/65 54/133/131
f 70/134/132 71/113/111 36/61/59 52/129/127
f 56/128/126 55/60/58 35/90/88 51/131/129
f 85/135/133 83/65/63 81/64/62 86/136/134
f 37/94/92 58/68/66 57/132/130 53/137/135
f 126/93/91 127/69/67 58/68/66 37/94/92
f 60/186/71 59/72/70 39/98/96 41/185/95
f 100/77/75 99/76/74 104/138/136 105/139/137
f 102/79/77 100/77/75 105/139/137 106/140/138
f 62/83/81 61/82/80 45/106/104 47/105/103
f 63/59/57 138/86/84 139/141/139 49/112/110
f 35/90/88 55/60/58 63/59/57 49/112/110
f 7/28/28 10/27/27 65/23/23 64/21/21
f 66/16/16 123/15/15 124/9/9 8/12/12
f 165/11/11 166/17/17 66/16/16 8/12/12
f 68/89/87 156/88/86 143/91/89 37/94/92
f 69/130/128 68/89/87 37/94/92 53/137/135
f 87/142/140 83/65/63 85/135/133 88/143/141
f 84/66/64 83/65/63 87/142/140 89/144/142
f 38/67/65 71/113/111 70/134/132 54/133/131
f 72/114/112 71/113/111 38/67/65 20/117/115
f 73/5/5 115/42/42 116/43/43 29/46/46
f 131/145/45 132/6/6 73/5/5 29/46/46
f 75/32/32 74/31/31 26/146/50 31/147/49
f 108/184/48 109/52/51 75/51/32 31/49/49
f 42/74/72 77/121/119 76/120/118 22/118/116
f 42/74/72 60/73/71 78/148/143 77/121/119
f 79/99/97 78/148/143 60/73/71 41/97/95
f 146/182/94 147/100/98 79/99/97 41/97/95
f 7/28/28 64/21/21 161/20/20 162/25/25
f 52/129/127 56/128/126 81/64/62 82/63/61
f 70/134/132 52/129/127 82/63/61 84/66/64
f 56/128/126 51/131/129 86/136/134 81/64/62
f 51/131/129 69/130/128 85/135/133 86/136/134
f 69/130/128 53/137/135 88/143/141 85/135/133
f 53/137/135 57/132/130 87/142/140 88/143/141
f 57/132/130 54/133/131 89/144/142 87/142/140
f 54/133/131 70/134/132 84/66/64 89/144/142
f 77/121/119 78/148/143 91/149/144 90/150/145
f 44/122/120 77/121/119 90/150/145 92/151/146
f 61/82/80 46/81/79 94/152/147 93/153/148
f 46/81/79 44/122/120 92/151/146 94/152/147
f 78/148/143 79/99/97 95/154/149 91/149/144
f 79/99/97 43/102/100 96/155/150 95/154/149
f 43/102/100 45/106/104 97/156/151 96/155/150
f 45/106/104 61/82/80 93/153/148 97/156/151
f 90/150/145 91/149/144 99/76/74 98/75/73
f 92/151/146 90/150/145 98/75/73 101/78/76
f 93/153/148 94/152/147 103/80/78 102/79/77
f 94/152/147 92/151/146 101/78/76 103/80/78
f 91/149/144 95/154/149 104/138/136 99/76/74
f 95/154/149 96/155/150 105/139/137 104/138/136
f 96/155/150 97/156/151 106/140/138 105/139/137
f 97/156/151 93/153/148 102/79/77 106/140/138
f 18/119/117 22/183/116 108/48/48 107/47/47
f 22/118/116 76/120/118 109/52/51 108/184/48
f 110/53/52 109/52/51 76/120/118 21/123/121
f 21/123/121 23/125/123 111/55/53 110/53/52
f 23/125/123 24/124/122 112/56/54 111/55/53
f 135/57/55 136/126/124 25/127/125 113/58/56
f 25/127/125 19/115/113 114/41/41 113/58/56
f 19/115/113 72/114/112 115/42/42 114/41/41
f 116/43/43 115/42/42 72/114/112 20/117/115
f 20/117/115 129/116/114 130/44/44 116/43/43
f 141/157/152 142/190/153 4/191/154 118/160/155
f 153/109/107 154/111/109 49/112/110 119/110/108
f 49/112/110 139/141/139 140/107/105 119/110/108
f 47/105/103 150/104/102 151/161/156 120/162/157
f 9/34/34 16/24/24 122/14/14 121/3/3
f 123/15/15 122/14/14 16/24/24 65/23/23
f 124/9/9 123/15/15 65/23/23 10/27/27
f 10/27/27 163/26/26 164/10/10 124/9/9
f 126/93/91 144/92/90 145/95/93 39/98/96
f 59/72/70 127/69/67 126/93/91 39/98/96
f 128/70/68 127/69/67 59/72/70 40/71/69
f 129/116/114 128/70/68 40/71/69 18/119/117
f 130/44/44 129/116/114 18/119/117 107/47/47
f 131/45/45 130/44/44 107/47/47 26/50/50
f 26/146/50 74/31/31 132/6/6 131/145/45
f 133/7/7 132/6/6 74/31/31 27/30/30
f 134/39/39 133/7/7 27/30/30 33/38/38
f 112/56/54 135/57/55 134/39/39 33/38/38
f 24/124/122 136/126/124 135/57/55 112/56/54
f 48/84/82 137/85/83 136/126/124 24/124/122
f 48/84/82 62/83/81 138/86/84 137/85/83
f 139/141/139 138/86/84 62/83/81 47/105/103
f 140/107/105 139/141/139 47/105/103 120/162/157
f 151/161/156 152/108/106 140/107/105 120/162/157
f 12/163/158 142/190/153 141/157/152 117/164/159
f 157/2/2 158/35/35 9/34/34 121/3/3
f 6/165/160 125/166/161 144/92/90 143/91/89
f 145/95/93 144/92/90 125/166/161 11/167/162
f 11/167/162 5/168/163 146/96/94 145/95/93
f 5/181/163 80/169/164 147/100/98 146/182/94
f 148/101/99 147/100/98 80/169/164 13/189/165
f 13/189/165 3/171/166 149/103/101 148/101/99
f 3/171/166 12/163/158 150/104/102 149/103/101
f 151/161/156 150/104/102 12/163/158 117/164/159
f 117/164/159 141/157/152 152/108/106 151/161/156
f 153/109/107 152/108/106 141/157/152 118/160/155
f 4/191/154 154/111/109 153/109/107 118/160/155
f 4/191/154 14/172/167 155/87/85 154/111/109
f 14/172/167 67/173/168 156/88/86 155/87/85
f 143/91/89 156/88/86 67/173/168 6/165/160
f 12/163/158 158/35/35 157/2/2 142/158/153
f 159/36/36 158/35/35 12/163/158 3/171/166
f 13/170/165 160/19/19 159/36/36 3/171/166
f 80/174/164 161/20/20 160/19/19 13/170/165
f 162/25/25 161/20/20 80/174/164 5/175/163
f 5/175/163 11/176/162 163/26/26 162/25/25
f 164/10/10 163/26/26 11/176/162 125/177/161
f 165/11/11 164/10/10 125/177/161 6/178/160
f 67/179/168 166/17/17 165/11/11 6/178/160
f 14/180/167 167/18/18 166/17/17 67/179/168
f 168/1/1 167/18/18 14/180/167 4/159/154
f 142/158/153 157/2/2 168/1/1 4/159/154
