# This file uses centimeters as units for non-parametric coordinates.

mtllib Projectile_Shurniken_0001.mtl
g default
v 33.534714 0.000001 -19.361277
v 19.361277 0.000001 -33.534714
v 0.000000 0.000001 -38.722553
v -19.361277 0.000001 -33.534714
v -33.534714 0.000001 -19.361277
v -38.722557 0.000001 0.000000
v -33.534714 0.000001 19.361277
v -19.361277 0.000001 33.534714
v 0.000000 0.000001 38.722553
v 19.361277 0.000001 33.534714
v 33.534714 0.000001 19.361277
v 38.722557 0.000001 0.000000
v 38.418335 5.639122 -22.180836
v 22.180836 5.639122 -38.418335
v 0.000000 5.639122 -44.361671
v -22.180836 5.639122 -38.418335
v -38.418335 5.639122 -22.180836
v -44.361671 5.639122 0.000000
v -38.418335 5.639122 22.180836
v -22.180836 5.639122 38.418335
v 0.000000 5.639122 44.361671
v 22.180836 5.639122 38.418335
v 38.418335 5.639122 22.180836
v 44.361671 5.639122 0.000000
v 42.661728 -0.000001 -24.823769
v 38.045376 -0.000005 -41.555996
v -11.954242 -0.000003 -55.711601
v -24.682177 -0.000001 -42.983749
v -42.983749 -0.000001 -24.682177
v -55.711601 -0.000003 -11.954243
v -41.555996 -0.000003 38.045376
v -24.823769 -0.000001 42.661728
v 0.125727 -0.000001 49.545086
v 17.147532 -0.000003 54.241199
v 54.241199 -0.000003 17.147532
v 49.545082 -0.000001 0.125725
v 38.418335 -5.639122 -22.180836
v 22.180836 -5.639122 -38.418335
v 0.000000 -5.639122 -44.361671
v -22.180836 -5.639122 -38.418335
v -38.418335 -5.639122 -22.180836
v -44.361671 -5.639122 0.000000
v -38.418335 -5.639122 22.180836
v -22.180836 -5.639122 38.418335
v 0.000000 -5.639122 44.361671
v 22.180836 -5.639122 38.418335
v 38.418335 -5.639122 22.180836
v 44.361671 -5.639122 0.000000
v 26.592333 3.030734 -65.611298
v 12.760549 3.030733 -69.317574
v 32.784435 -0.000005 -69.831848
v 9.529646 -0.000004 -76.505890
v 26.592333 -3.030734 -65.611298
v 12.760549 -3.030734 -69.317574
v -69.317574 3.030733 12.760549
v -65.611298 3.030734 26.592333
v -76.505890 -0.000004 9.529646
v -69.831848 -0.000003 32.784435
v -69.317574 -3.030735 12.760549
v -65.611298 -3.030734 26.592333
v 46.509411 3.030734 56.635010
v 56.635010 3.030733 46.509411
v 47.229843 -0.000003 64.347893
v 64.347893 -0.000003 47.229843
v 46.509411 -3.030734 56.635010
v 56.635010 -3.030734 46.509411
v 42.411018 2.675403 -24.638382
v 49.176872 2.675403 0.081384
v 50.718586 2.675401 19.113543
v 63.570702 1.873390 48.176117
v 48.176117 1.873390 63.570702
v 19.113543 2.675402 50.718586
v 0.081386 2.675403 49.176876
v -24.638382 2.675403 42.411018
v -41.635353 2.675402 34.106461
v -70.282776 1.873389 31.688469
v -76.210495 1.873389 10.751670
v -53.618622 2.675402 -8.585261
v -42.659721 2.675403 -24.536839
v -24.536839 2.675403 -42.659721
v -8.585260 2.675402 -53.618622
v 10.751670 1.873389 -76.210495
v 31.688469 1.873389 -70.282776
v 34.106461 2.675400 -41.635353
v 38.993298 -3.368721 -22.569023
v 45.133953 -3.368721 0.060783
v 43.494102 -3.368722 19.609171
v 58.043400 -1.847943 45.486221
v 45.486221 -1.847943 58.043400
v 19.609171 -3.368722 43.494102
v 0.060783 -3.368721 45.133953
v -22.569023 -3.368721 38.993298
v -38.539680 -3.368721 27.731918
v -65.384644 -1.847943 28.259151
v -70.139656 -1.847944 11.155826
v -47.506966 -3.368722 -4.634577
v -39.094627 -3.368721 -22.513956
v -22.513956 -3.368721 -39.094627
v -4.634577 -3.368722 -47.506966
v 11.155826 -1.847943 -70.139656
v 28.259151 -1.847944 -65.384644
v 27.731918 -3.368722 -38.539680
vt 0.202570 0.641710
vt 0.289206 0.667825
vt 0.294583 0.675514
vt 0.194007 0.645090
vt 0.459598 0.153979
vt 0.349854 0.121052
vt 0.352067 0.109857
vt 0.463859 0.143398
vt 0.447062 0.173806
vt 0.349323 0.144917
vt 0.265791 0.114505
vt 0.274718 0.095915
vt 0.891769 0.681959
vt 0.862773 0.576322
vt 0.532697 0.194752
vt 0.534849 0.174568
vt 0.143258 0.062609
vt 0.144827 0.053434
vt 0.881417 0.682256
vt 0.853721 0.581246
vt 0.652384 0.214205
vt 0.656185 0.205815
vt 0.076791 0.124313
vt 0.067623 0.125381
vt 0.880646 0.771485
vt 0.855703 0.783417
vt 0.807087 0.505502
vt 0.779992 0.507223
vt 0.383911 0.812309
vt 0.362778 0.736026
vt 0.369318 0.742873
vt 0.385725 0.803471
vt 0.540004 0.345962
vt 0.516117 0.247143
vt 0.631374 0.234466
vt 0.644738 0.293540
vt 0.678684 0.515557
vt 0.762652 0.537545
vt 0.674046 0.302052
vt 0.580412 0.384692
vt 0.824045 0.598888
vt 0.595314 0.538771
vt 0.511770 0.442760
vt 0.592278 0.401242
vt 0.681447 0.307826
vt 0.532318 0.455183
vt 0.846874 0.682681
vt 0.534152 0.600426
vt 0.437987 0.512917
vt 0.540919 0.462671
vt 0.449399 0.534081
vt 0.825247 0.766501
vt 0.251227 0.168819
vt 0.511744 0.684232
vt 0.339886 0.536152
vt 0.376519 0.578509
vt 0.764271 0.828246
vt 0.177713 0.238993
vt 0.534780 0.767885
vt 0.242409 0.507347
vt 0.456472 0.543063
vt 0.392447 0.591203
vt 0.282201 0.638121
vt 0.680472 0.850664
vt 0.148762 0.335565
vt 0.105791 0.133150
vt 0.150179 0.092001
vt 0.223882 0.621769
vt 0.596577 0.828435
vt 0.172686 0.434634
vt 0.124864 0.334887
vt 0.122622 0.250517
vt 0.189247 0.521228
vt 0.152287 0.446138
vt 0.113572 0.336529
vt 0.103604 0.258505
vt 0.168980 0.522347
vt 0.141503 0.449855
vt 0.804344 0.385676
vt 0.795551 0.387662
vt 0.678106 0.480664
vt 0.734656 0.372317
vt 0.727694 0.365896
vt 0.655826 0.464921
vt 0.577668 0.509130
vt 0.572150 0.500338
vt 0.504019 0.583542
vt 0.495198 0.578175
vt 0.476772 0.684453
vt 0.460725 0.662397
vt 0.781921 0.858438
vt 0.504935 0.785860
vt 0.934168 0.891042
vt 0.889703 0.935185
vt 0.680818 0.885210
vt 0.579673 0.858516
vt 0.942919 0.888124
vt 0.886853 0.943986
vt 0.770143 0.883484
vt 0.680603 0.895565
vt 0.503569 0.812953
vt 0.574841 0.867611
vt 0.895414 0.972652
vt 0.971664 0.896524
vt 0.930706 0.761471
vt 0.760621 0.933635
vt 0.333502 0.729352
vt 0.363210 0.832744
vt 0.488117 0.860403
vt 0.421415 0.630091
vt 0.824375 0.364567
vt 0.720451 0.336765
vt 0.622906 0.426129
vt 0.854326 0.489331
vt 0.916040 0.681880
vt 0.883347 0.564077
vt 0.680701 0.919818
vt 0.562764 0.888305
vt 0.473978 0.566128
vt 0.559800 0.479222
vt 0.348834 0.178575
vt 0.429352 0.202521
vt 0.267367 0.198209
vt 0.206413 0.256144
vt 0.182479 0.336479
vt 0.202057 0.418142
vt 0.259834 0.478742
vt 0.340427 0.502678
vt 0.421915 0.483289
vt 0.482854 0.425529
vt 0.506511 0.345194
vt 0.486900 0.263430
vn -0.500000 0.000000 0.866025
vn -0.866025 -0.000000 0.500000
vn -0.082433 0.993589 0.077373
vn -0.022077 0.994301 0.104298
vn -0.000000 0.000000 1.000000
vn -0.034638 0.994707 0.096741
vn 0.500000 0.000000 0.866025
vn 0.030527 0.994014 0.104900
vn 0.866025 0.000000 0.500000
vn 0.104900 0.994014 0.030527
vn 1.000000 -0.000000 -0.000000
vn 0.096741 0.994707 -0.034638
vn 0.866025 -0.000000 -0.500000
vn 0.104298 0.994301 -0.022077
vn 0.500000 0.000000 -0.866025
vn 0.077373 0.993589 -0.082433
vn 0.000000 0.000000 -1.000000
vn -0.026765 0.993778 -0.108113
vn -0.500000 0.000000 -0.866025
vn -0.076240 0.995171 -0.061820
vn -0.866025 0.000000 -0.500000
vn -0.061820 0.995171 -0.076240
vn -1.000000 -0.000000 0.000000
vn -0.108113 0.993778 -0.026765
vn 0.359775 0.923789 -0.131057
vn 0.565383 0.792750 -0.227793
vn 0.747311 -0.610923 -0.261342
vn 0.667759 -0.719716 -0.190015
vn -0.135333 0.897064 -0.420667
vn 0.353162 0.890881 -0.285671
vn 0.666155 -0.658840 -0.349524
vn -0.353323 -0.679920 -0.642551
vn -0.370791 0.802062 -0.468199
vn -0.229129 0.925335 -0.302085
vn -0.449109 -0.733329 -0.510421
vn -0.515411 -0.620622 -0.590915
vn -0.468199 0.802062 -0.370791
vn -0.590915 -0.620622 -0.515411
vn -0.302085 0.925335 -0.229129
vn -0.510421 -0.733329 -0.449109
vn -0.285671 0.890881 0.353162
vn -0.420667 0.897064 -0.135333
vn -0.642551 -0.679920 -0.353323
vn -0.349524 -0.658840 0.666155
vn -0.227793 0.792750 0.565383
vn -0.131057 0.923789 0.359775
vn -0.190015 -0.719716 0.667760
vn -0.261342 -0.610923 0.747311
vn -0.089748 0.799440 0.594004
vn -0.155509 -0.615635 0.772536
vn -0.066219 0.927868 0.366983
vn -0.168532 -0.729903 0.662449
vn 0.434747 0.898371 0.062649
vn 0.062649 0.898371 0.434747
vn -0.037801 -0.654232 0.755349
vn 0.755349 -0.654232 -0.037801
vn 0.594004 0.799440 -0.089748
vn 0.366983 0.927868 -0.066219
vn 0.662449 -0.729903 -0.168532
vn 0.772535 -0.615635 -0.155509
vn 0.395278 -0.905788 -0.152652
vn 0.565506 -0.790574 -0.234939
vn -0.293552 -0.936847 0.190120
vn -0.037809 -0.989111 0.142230
vn -0.153657 -0.953211 -0.260341
vn 0.276848 -0.952376 -0.127806
vn 0.106278 -0.986482 -0.124732
vn -0.022609 -0.986295 -0.163437
vn -0.365689 -0.801419 -0.473285
vn -0.243462 -0.912280 -0.329350
vn -0.040978 -0.989006 0.142086
vn 0.155481 -0.939179 0.306216
vn -0.473285 -0.801419 -0.365689
vn 0.306216 -0.939179 0.155481
vn -0.329350 -0.912280 -0.243462
vn 0.142086 -0.989006 -0.040978
vn -0.127806 -0.952376 0.276848
vn -0.260341 -0.953211 -0.153657
vn -0.163437 -0.986295 -0.022609
vn -0.124732 -0.986482 0.106278
vn -0.234939 -0.790574 0.565506
vn -0.152652 -0.905788 0.395278
vn 0.142230 -0.989111 -0.037809
vn 0.190120 -0.936847 -0.293552
vn -0.082443 -0.798248 0.596660
vn -0.019054 -0.938955 -0.343513
vn -0.065740 -0.912951 0.402739
vn -0.100803 -0.990563 -0.092866
vn 0.299069 -0.953789 -0.029068
vn -0.029068 -0.953789 0.299069
vn 0.049371 -0.988146 0.145360
vn 0.145360 -0.988146 0.049371
vn 0.596660 -0.798248 -0.082443
vn 0.402739 -0.912951 -0.065740
vn -0.092866 -0.990563 -0.100803
vn -0.343513 -0.938955 -0.019054
vn 0.094633 0.991367 -0.090755
vn -0.028337 0.991300 -0.128534
vn -0.128534 0.991300 -0.028337
vn -0.090755 0.991367 0.094633
vn 0.027822 0.992105 0.122283
vn 0.122283 0.992105 0.027822
s 1
g pTorus1
usemtl initialShadingGroup
f 2/132/1 1/122/2 13/9/3 14/34/4
f 3/131/5 2/132/1 14/34/4 15/33/6
f 4/130/7 3/131/5 15/33/6 16/43/8
f 5/129/9 4/130/7 16/43/8 17/49/10
f 6/128/11 5/129/9 17/49/10 18/55/12
f 7/127/13 6/128/11 18/55/12 19/60/14
f 8/126/15 7/127/13 19/60/14 20/70/16
f 9/125/17 8/126/15 20/70/16 21/65/18
f 10/124/19 9/125/17 21/65/18 22/58/20
f 11/123/21 10/124/19 22/58/20 23/53/22
f 12/121/23 11/123/21 23/53/22 24/10/24
f 1/122/2 12/121/23 24/10/24 13/9/3
f 84/15/25 67/5/26 25/8/27 26/16/28
f 82/39/29 83/21/30 51/22/31 52/45/32
f 80/46/33 81/40/34 27/44/35 28/50/36
f 79/51/37 80/46/33 28/50/36 29/61/38
f 78/56/39 79/51/37 29/61/38 30/62/40
f 76/1/41 77/2/42 57/3/43 58/4/44
f 74/74/45 75/73/46 31/77/47 32/78/48
f 73/71/49 74/74/45 32/78/48 33/75/50
f 72/72/51 73/71/49 33/75/50 34/76/52
f 70/17/53 71/23/54 63/24/55 64/18/56
f 68/6/57 69/11/58 35/12/59 36/7/60
f 67/5/26 68/6/57 36/7/60 25/8/27
f 102/27/61 85/14/62 37/20/63 38/28/64
f 100/83/65 101/79/66 53/80/67 54/82/68
f 98/86/69 99/84/70 39/81/71 40/85/72
f 97/88/73 98/86/69 40/85/72 41/87/74
f 96/90/75 97/88/73 41/87/74 42/89/76
f 94/29/77 95/30/78 59/31/79 60/32/80
f 92/102/81 93/101/82 43/92/83 44/96/84
f 91/100/85 92/102/81 44/96/84 45/95/86
f 90/99/87 91/100/85 45/95/86 46/91/88
f 88/97/89 89/98/90 65/94/91 66/93/92
f 86/13/93 87/25/94 47/26/95 48/19/96
f 85/14/62 86/13/93 48/19/96 37/20/63
f 38/28/64 37/20/63 1/41/2 2/38/1
f 39/81/71 38/28/64 2/38/1 3/37/5
f 40/85/72 39/81/71 3/37/5 4/42/7
f 41/87/74 40/85/72 4/42/7 5/48/9
f 42/89/76 41/87/74 5/48/9 6/54/11
f 43/92/83 42/89/76 6/54/11 7/59/13
f 44/96/84 43/92/83 7/59/13 8/69/15
f 45/95/86 44/96/84 8/69/15 9/64/17
f 46/91/88 45/95/86 9/64/17 10/57/19
f 47/26/95 46/91/88 10/57/19 11/52/21
f 48/19/96 47/26/95 11/52/21 12/47/23
f 37/20/63 48/19/96 12/47/23 1/41/2
f 15/33/6 14/34/4 49/35/97 50/36/98
f 83/21/30 84/15/25 26/16/28 51/22/31
f 27/44/35 81/40/34 82/39/29 52/45/32
f 101/79/66 102/27/61 38/28/64 53/80/67
f 38/28/64 39/81/71 54/82/68 53/80/67
f 39/81/71 99/84/70 100/83/65 54/82/68
f 19/60/14 18/55/12 55/63/99 56/68/100
f 77/2/42 78/56/39 30/62/40 57/3/43
f 31/77/47 75/73/46 76/1/41 58/4/44
f 95/30/78 96/90/75 42/89/76 59/31/79
f 42/89/76 43/92/83 60/32/80 59/31/79
f 43/92/83 93/101/82 94/29/77 60/32/80
f 23/53/22 22/58/20 61/66/101 62/67/102
f 71/23/54 72/72/51 34/76/52 63/24/55
f 35/12/59 69/11/58 70/17/53 64/18/56
f 89/98/90 90/99/87 46/91/88 65/94/91
f 46/91/88 47/26/95 66/93/92 65/94/91
f 47/26/95 87/25/94 88/97/89 66/93/92
f 13/9/3 24/10/24 68/6/57 67/5/26
f 24/10/24 23/53/22 69/11/58 68/6/57
f 70/17/53 69/11/58 23/53/22 62/67/102
f 62/67/102 61/66/101 71/23/54 70/17/53
f 22/58/20 72/72/51 71/23/54 61/66/101
f 22/58/20 21/65/18 73/71/49 72/72/51
f 21/65/18 20/70/16 74/74/45 73/71/49
f 20/70/16 19/60/14 75/73/46 74/74/45
f 76/1/41 75/73/46 19/60/14 56/68/100
f 56/68/100 55/63/99 77/2/42 76/1/41
f 18/55/12 78/56/39 77/2/42 55/63/99
f 18/55/12 17/49/10 79/51/37 78/56/39
f 17/49/10 16/43/8 80/46/33 79/51/37
f 16/43/8 15/33/6 81/40/34 80/46/33
f 82/39/29 81/40/34 15/33/6 50/36/98
f 50/36/98 49/35/97 83/21/30 82/39/29
f 14/34/4 84/15/25 83/21/30 49/35/97
f 14/34/4 13/9/3 67/5/26 84/15/25
f 25/116/27 36/115/60 86/13/93 85/14/62
f 36/115/60 35/105/59 87/25/94 86/13/93
f 88/97/89 87/25/94 35/105/59 64/104/56
f 64/104/56 63/103/55 89/98/90 88/97/89
f 34/106/52 90/99/87 89/98/90 63/103/55
f 34/106/52 33/117/50 91/100/85 90/99/87
f 33/117/50 32/118/48 92/102/81 91/100/85
f 32/118/48 31/109/47 93/101/82 92/102/81
f 94/29/77 93/101/82 31/109/47 58/108/44
f 58/108/44 57/107/43 95/30/78 94/29/77
f 30/110/40 96/90/75 95/30/78 57/107/43
f 30/110/40 29/119/38 97/88/73 96/90/75
f 29/119/38 28/120/36 98/86/69 97/88/73
f 28/120/36 27/113/35 99/84/70 98/86/69
f 100/83/65 99/84/70 27/113/35 52/112/32
f 52/112/32 51/111/31 101/79/66 100/83/65
f 26/114/28 102/27/61 101/79/66 51/111/31
f 26/114/28 25/116/27 85/14/62 102/27/61
