# This file uses centimeters as units for non-parametric coordinates.

mtllib Projectile_W_0001.mtl
g default
v -0.107250 2.017291 2.000259
v 1.555221 1.144094 1.144093
v -0.107250 2.017291 -2.000261
v 1.555221 1.144093 -1.144094
v -0.107250 -2.017291 -2.000261
v 1.555221 -1.144094 -1.144094
v -0.107250 -2.017291 2.000261
v 1.555221 -1.144094 1.144094
v 0.223967 1.637259 1.637258
v 0.223967 -1.637259 1.637259
v 0.223967 -1.637259 -1.637259
v 0.223967 1.637259 -1.637259
v -0.288630 -0.000001 -2.920190
v 0.223967 -0.000001 -2.390244
v 1.895108 -0.000001 -1.670268
v 1.895108 -0.000000 1.670269
v 0.223967 0.000000 2.390244
v -0.288630 0.000000 2.920191
v -0.288630 2.945055 -0.000001
v 0.223967 2.390244 -0.000000
v 1.895108 1.670269 0.000000
v 2.900420 -0.000000 0.000000
v 1.895108 -1.670269 0.000000
v 0.223967 -2.390244 0.000000
v -0.288630 -2.945055 -0.000000
v -5.609776 -0.000000 0.000000
v -1.594747 -2.240254 -0.000000
v -1.594747 -0.000001 -2.630393
v -1.594747 2.203193 -0.000000
v -1.594747 -0.000000 2.718258
v -1.594747 -1.216046 -1.202574
v -1.594747 1.099274 -1.317969
v -1.594747 1.083325 1.381671
v -1.594747 -1.075795 1.412921
vt 0.544370 0.273478
vt 0.645777 0.415971
vt 0.381427 0.554823
vt 0.543662 0.581705
vt 0.452648 0.835375
vt 0.569011 0.750871
vt 0.704412 0.976570
vt 0.716185 0.833451
vt 0.976858 0.873359
vt 0.877014 0.771685
vt 0.810121 0.515242
vt 0.711654 0.679698
vt 0.199936 0.037087
vt 0.012273 0.370743
vt 0.572954 0.320548
vt 0.943190 0.847695
vt 0.708342 0.934975
vt 0.486043 0.810337
vt 0.430545 0.563443
vt 0.154341 0.526763
vt 0.382834 0.700702
vt 0.432799 0.691272
vt 0.560240 0.666007
vt 0.613599 0.655465
vt 0.794128 0.797816
vt 0.742624 0.441118
vt 0.837021 0.917576
vt 0.412969 0.087400
vt 0.855571 0.964997
vt 0.472819 0.422847
vt 0.504099 0.442643
vt 0.589899 0.495470
vt 0.683808 0.551553
vt 0.645167 0.787469
vt 0.786969 0.612959
vt 0.583095 0.897944
vt 0.041954 0.170311
vt 0.557582 0.943429
vt 0.268082 0.299130
vt 0.125988 0.214236
vt 0.193356 0.446108
vt 0.410321 0.384227
vt 0.362839 0.159700
vt 0.117502 0.333878
vt 0.312739 0.452300
vt 0.424987 0.260760
vt 0.244700 0.145811
vn 0.623161 0.713077 -0.321235
vn 0.642572 0.766225 -0.000000
vn 0.439598 0.898194 -0.000000
vn 0.398336 0.813885 -0.422988
vn 0.701406 -0.308441 -0.642568
vn 0.764453 0.000000 -0.644680
vn 0.439599 0.000000 -0.898194
vn 0.398336 -0.422988 -0.813886
vn 0.439598 -0.898194 0.000000
vn 0.642572 -0.766225 0.000000
vn 0.439598 0.000000 0.898194
vn 0.764453 0.000000 0.644680
vn 0.701406 -0.308441 0.642568
vn 0.398335 -0.422988 0.813886
vn 1.000000 -0.000000 0.000000
vn -0.491217 -0.669942 -0.556672
vn -0.433360 -0.674970 -0.597173
vn -0.528796 -0.027688 -0.848297
vn -0.661649 -0.000000 -0.749814
vn 0.917774 -0.143804 0.370150
vn 0.927413 0.000000 0.374038
vn 0.820482 -0.571672 -0.000000
vn 0.820482 0.571672 -0.000000
vn 0.804586 0.560597 -0.195888
vn 0.701406 0.308441 0.642568
vn 0.398335 0.422989 0.813886
vn 0.917774 0.143804 0.370150
vn -0.434164 0.675889 -0.595546
vn -0.551239 0.834339 0.003597
vn -0.426451 -0.681237 0.595026
vn -0.546386 -0.836975 0.030588
vn -0.428585 0.684645 0.589556
vn -0.512199 0.007311 0.858836
vn -1.000000 0.000000 0.000000
s 1
g Wind_Ball
usemtl pCube1SG
f 12/19/1 20/31/2 21/32/3 4/4/4
f 11/18/5 14/22/6 15/23/7 6/6/8
f 23/34/9 24/36/10 11/18/5 6/6/8
f 16/25/11 17/27/12 10/17/13 8/8/14
f 15/24/7 22/33/15 23/35/9 6/12/8
f 5/14/16 31/44/17 28/41/18 13/20/19
f 7/7/20 10/17/13 17/27/12 18/29/21
f 5/5/16 11/18/5 24/36/10 25/38/22
f 13/21/19 14/22/6 11/18/5 5/5/16
f 19/30/23 20/31/2 12/19/1 3/3/24
f 3/3/24 12/19/1 14/22/6 13/21/19
f 15/23/7 14/22/6 12/19/1 4/4/4
f 21/32/3 22/33/15 15/24/7 4/4/4
f 9/16/25 17/27/12 16/25/11 2/10/26
f 18/29/21 17/27/12 9/16/25 1/9/27
f 3/3/24 32/45/28 29/42/29 19/30/23
f 1/1/27 9/15/25 20/31/2 19/30/23
f 21/32/3 20/31/2 9/15/25 2/2/26
f 2/2/26 16/26/11 22/33/15 21/32/3
f 23/35/9 22/33/15 16/26/11 8/11/14
f 10/17/13 24/36/10 23/34/9 8/8/14
f 25/38/22 24/36/10 10/17/13 7/7/20
f 7/13/20 34/47/30 27/40/31 25/37/22
f 1/1/27 33/46/32 30/43/33 18/28/21
f 28/41/18 31/44/17 26/39/34
f 29/42/29 32/45/28 26/39/34
f 27/40/31 34/47/30 26/39/34
f 30/43/33 33/46/32 26/39/34
f 25/37/22 27/40/31 31/44/17 5/14/16
f 26/39/34 31/44/17 27/40/31
f 13/20/19 28/41/18 32/45/28 3/3/24
f 26/39/34 32/45/28 28/41/18
f 19/30/23 29/42/29 33/46/32 1/1/27
f 26/39/34 33/46/32 29/42/29
f 7/13/20 18/28/21 30/43/33 34/47/30
f 26/39/34 34/47/30 30/43/33
